<svg id="eG0bJD6zIrg1" xmlns="http://www.w3.org/2000/svg" xmlns:xlink="http://www.w3.org/1999/xlink" viewBox="0 -28.5 256 256" shape-rendering="geometricPrecision" text-rendering="geometricPrecision"><g><path d="M216.856339,16.596603C200.285002,8.843287,182.566144,3.208499,164.041564,0c-2.275041,4.113181-4.93294,9.645499-6.765465,14.046438-19.692104-2.961448-39.203132-2.961448-58.533083,0C96.910842,9.645499,94.192584,4.113181,91.89719,0C73.352607,3.208499,55.613395,8.863991,39.042058,16.637661C5.617523,67.146514,-3.443319,116.400813,1.087111,164.955721c22.168909,16.555194,43.653252,26.611976,64.775022,33.192855c5.215082-7.17745,9.86623-14.807241,13.873081-22.848315-7.631195-2.899686-14.940242-6.478059-21.846427-10.632298c1.832174-1.357374,3.624343-2.776511,5.355803-4.236706c42.12282,19.70193,87.890338,19.70193,129.509933,0c1.751813,1.460195,3.543631,2.879332,5.355803,4.236706-6.926539,4.174593-14.255589,7.752966-21.886784,10.653002c4.006851,8.02037,8.637996,15.670866,13.873082,22.847965c21.142122-6.580879,42.646399-16.637311,64.815325-33.213209c5.315798-56.28752-9.080862-105.089478-38.05561-148.359118ZM85.473875,135.09489c-12.644847,0-23.014653-11.804735-23.014653-26.179989s10.148373-26.200342,23.014653-26.200342c12.866631,0,23.236087,11.804384,23.014654,26.200342.020002,14.375254-10.148023,26.179989-23.014654,26.179989Zm85.051362,0c-12.644847,0-23.014653-11.804735-23.014653-26.179989s10.148022-26.200342,23.014653-26.200342c12.866281,0,23.236087,11.804384,23.014654,26.200342c0,14.375254-10.148373,26.179989-23.014654,26.179989Z" fill="#e7e7e7"/></g></svg>
